# xmcd
#
# Track frame offsets: 
#        150
#        21950
#        44727
#        68235
#        84522
#        101600
#        125140
#        147260
#        166185
#        188985
#        214150
#        234330
#        252960
#        269225
#        288877
#        311272
#
# Disc length: 4483 seconds
#
# Revision: 1
# Processed by: cddbd v1.5.2PL0 Copyright (c) Steve Scherf et al.
# Submitted via: ExactAudioCopy v1.0b3
#
DISCID=f0118110
DTITLE=佐藤隆 - 十六夜曲’80~’90 TOCT-5924
DYEAR=1900
DGENRE=JPop
TTITLE0=北京で朝食を 
TTITLE1=キャバレー
TTITLE2=八月のメモワール
TTITLE3=マイ・クラシック
TTITLE4=映画時代 
TTITLE5=12番街のキャロル 
TTITLE6=桃色吐息 
TTITLE7=カルメン
TTITLE8=僕達の孤独
TTITLE9=ください
TTITLE10=ひとひらの雪
TTITLE11=デラシネ 
TTITLE12=虹色浪漫 
TTITLE13=黒い瞳
TTITLE14=カリョービンガ 
TTITLE15=エスメラルダ
EXTD=
EXTT0=
EXTT1=
EXTT2=
EXTT3=
EXTT4=
EXTT5=
EXTT6=
EXTT7=
EXTT8=
EXTT9=
EXTT10=
EXTT11=
EXTT12=
EXTT13=
EXTT14=
EXTT15=
PLAYORDER=
